# xmcd CD database file
#
# Track frame offsets:
#	150
#	52430
#	60957
#	78300
#	126322
#
# Disc length: 2079 seconds
#
# Revision: 0
# Processed by: cddbd v1.4PL0 Copyright (c) Steve Scherf et al.
# Submitted via: CDex 1.50Beta7
#
DISCID=41081d05
DTITLE=SADAO WATANABE - WE GOT A NEW BAG
DYEAR=2000
DGENRE=Jazz
TTITLE0=RAAM SINTHUBAIRAVI
TTITLE1=KUNJI KUNJIPESI, MATHI MAYAKKU
TTITLE2=LAMENT
TTITLE3=PALISADES
TTITLE4=YOU ARE MY HEART DELIGHT
EXTD=YEAR: 2000
EXTT0=
EXTT1=
EXTT2=
EXTT3=
EXTT4=
PLAYORDER=
